<?xml version="1.0" encoding="utf-8" ?>
<svg baseProfile="tiny" height="1024" version="1.2" width="1024" xmlns="http://www.w3.org/2000/svg" xmlns:ev="http://www.w3.org/2001/xml-events" xmlns:xlink="http://www.w3.org/1999/xlink"><defs /><path d="M 259,416 L 258,417 L 258,418 L 256,420 L 256,421 L 254,423 L 254,424 L 252,426 L 252,427 L 250,429 L 250,430 L 248,432 L 248,433 L 245,436 L 245,437 L 243,439 L 243,440 L 241,442 L 241,443 L 238,446 L 238,447 L 236,449 L 236,450 L 233,453 L 233,454 L 231,456 L 231,457 L 229,459 L 229,460 L 226,463 L 226,464 L 224,466 L 224,467 L 222,469 L 222,471 L 223,471 L 224,472 L 227,472 L 228,473 L 231,473 L 232,474 L 235,474 L 236,475 L 239,475 L 240,476 L 243,476 L 244,477 L 246,477 L 247,478 L 250,478 L 251,479 L 254,479 L 255,480 L 257,480 L 258,481 L 261,481 L 262,482 L 265,482 L 266,483 L 268,483 L 269,484 L 272,484 L 273,485 L 276,485 L 277,484 L 277,483 L 278,482 L 278,481 L 279,480 L 279,479 L 280,478 L 280,477 L 281,476 L 281,475 L 282,474 L 282,473 L 283,472 L 283,471 L 284,470 L 284,469 L 285,468 L 285,467 L 286,466 L 286,465 L 287,464 L 287,463 L 288,462 L 288,461 L 289,460 L 289,459 L 290,458 L 290,457 L 291,456 L 291,455 L 292,454 L 292,453 L 293,452 L 293,451 L 294,450 L 294,449 L 295,448 L 295,447 L 296,446 L 296,445 L 297,444 L 297,443 L 298,442 L 298,441 L 299,440 L 299,439 L 300,438 L 300,437 L 301,436 L 301,435 L 303,433 L 303,432 L 302,431 L 300,431 L 299,430 L 298,430 L 297,429 L 295,429 L 294,428 L 292,428 L 291,427 L 290,427 L 289,426 L 287,426 L 286,425 L 284,425 L 283,424 L 281,424 L 280,423 L 279,423 L 278,422 L 276,422 L 275,421 L 273,421 L 272,420 L 270,420 L 269,419 L 268,419 L 267,418 L 265,418 L 264,417 L 262,417 L 261,416 Z" fill="black" /><path d="M 732,348 L 731,349 L 714,349 L 712,351 L 712,352 L 709,355 L 709,356 L 707,358 L 707,359 L 705,361 L 705,362 L 703,364 L 703,365 L 701,367 L 701,368 L 699,370 L 699,371 L 697,373 L 697,374 L 695,376 L 695,377 L 693,379 L 693,380 L 691,382 L 691,383 L 689,385 L 689,386 L 687,388 L 687,389 L 685,391 L 685,392 L 683,394 L 683,395 L 681,397 L 681,398 L 678,401 L 678,402 L 676,404 L 676,405 L 674,407 L 674,408 L 672,410 L 672,411 L 671,412 L 671,415 L 673,417 L 673,418 L 675,420 L 675,421 L 677,423 L 677,424 L 679,426 L 679,427 L 681,429 L 681,430 L 683,432 L 683,433 L 685,435 L 685,436 L 687,438 L 687,439 L 689,441 L 689,442 L 691,444 L 691,445 L 693,447 L 693,448 L 695,450 L 695,451 L 698,454 L 698,455 L 700,457 L 700,458 L 702,460 L 702,462 L 684,480 L 684,482 L 685,483 L 685,484 L 687,486 L 687,487 L 688,488 L 688,489 L 689,490 L 689,491 L 690,492 L 690,493 L 692,495 L 692,496 L 693,497 L 693,498 L 694,499 L 694,500 L 695,501 L 695,502 L 697,504 L 697,505 L 698,506 L 698,507 L 699,508 L 699,509 L 700,510 L 700,511 L 701,512 L 701,513 L 702,514 L 702,522 L 700,524 L 699,523 L 698,523 L 692,517 L 691,517 L 686,512 L 685,512 L 680,507 L 679,507 L 674,502 L 673,502 L 668,497 L 667,497 L 662,492 L 661,492 L 657,488 L 656,488 L 651,483 L 651,482 L 658,475 L 659,475 L 668,466 L 665,463 L 664,463 L 662,461 L 661,461 L 658,458 L 657,458 L 655,456 L 654,456 L 652,454 L 651,454 L 649,452 L 648,452 L 645,449 L 644,449 L 642,447 L 641,447 L 639,445 L 638,445 L 635,442 L 634,442 L 632,440 L 631,440 L 629,438 L 628,438 L 625,435 L 624,435 L 622,433 L 621,433 L 618,430 L 617,430 L 615,428 L 613,428 L 611,430 L 611,431 L 609,433 L 609,434 L 607,436 L 607,437 L 606,438 L 606,439 L 604,441 L 604,442 L 603,443 L 603,444 L 602,445 L 602,446 L 601,447 L 601,448 L 599,450 L 599,451 L 598,452 L 598,453 L 597,454 L 597,455 L 596,456 L 596,457 L 595,458 L 595,460 L 594,461 L 594,462 L 593,463 L 593,464 L 592,465 L 592,466 L 591,467 L 591,469 L 590,470 L 590,471 L 589,472 L 589,474 L 588,475 L 588,477 L 587,478 L 587,480 L 586,481 L 586,483 L 585,484 L 585,486 L 584,487 L 584,490 L 583,491 L 583,493 L 582,494 L 582,498 L 581,499 L 581,503 L 580,504 L 580,509 L 579,510 L 579,517 L 578,518 L 578,533 L 577,534 L 578,535 L 578,553 L 579,554 L 579,562 L 580,563 L 580,567 L 581,568 L 581,573 L 582,574 L 582,577 L 583,578 L 583,581 L 584,582 L 584,585 L 585,586 L 585,588 L 586,589 L 586,591 L 587,592 L 587,594 L 588,595 L 588,596 L 589,597 L 589,599 L 590,600 L 590,601 L 591,602 L 591,604 L 592,605 L 592,606 L 593,607 L 593,608 L 594,609 L 594,610 L 595,611 L 595,612 L 596,613 L 596,614 L 597,615 L 597,616 L 598,617 L 598,618 L 599,619 L 599,620 L 600,621 L 600,622 L 601,623 L 601,624 L 603,626 L 603,627 L 604,628 L 604,629 L 606,631 L 606,632 L 608,634 L 608,635 L 610,637 L 610,638 L 613,641 L 613,642 L 617,646 L 617,647 L 638,668 L 639,668 L 644,673 L 645,673 L 648,676 L 649,676 L 652,679 L 653,679 L 655,681 L 656,681 L 658,683 L 659,683 L 661,685 L 662,685 L 663,686 L 664,686 L 666,688 L 667,688 L 668,689 L 669,689 L 670,690 L 671,690 L 673,692 L 674,692 L 675,693 L 676,693 L 677,694 L 678,694 L 679,695 L 681,695 L 682,696 L 683,696 L 684,697 L 685,697 L 686,698 L 687,698 L 688,699 L 690,699 L 691,700 L 693,700 L 694,701 L 695,701 L 696,702 L 698,702 L 699,703 L 701,703 L 702,704 L 705,704 L 706,705 L 709,705 L 710,706 L 713,706 L 714,707 L 718,707 L 719,708 L 724,708 L 725,709 L 732,709 L 733,710 L 772,710 L 773,709 L 777,709 L 778,710 L 778,711 L 779,712 L 779,713 L 780,714 L 780,715 L 781,716 L 781,717 L 782,718 L 782,719 L 783,720 L 783,721 L 784,722 L 784,724 L 785,725 L 785,726 L 786,727 L 786,728 L 787,729 L 787,730 L 788,731 L 788,732 L 789,733 L 790,733 L 790,731 L 791,730 L 791,723 L 792,722 L 792,714 L 793,713 L 793,706 L 795,704 L 797,704 L 798,703 L 801,703 L 802,702 L 804,702 L 805,701 L 806,701 L 807,700 L 809,700 L 810,699 L 812,699 L 813,698 L 814,698 L 815,697 L 817,697 L 818,696 L 819,696 L 820,695 L 821,695 L 822,694 L 823,694 L 824,693 L 825,693 L 826,692 L 827,692 L 828,691 L 829,691 L 830,690 L 831,690 L 832,689 L 833,689 L 834,688 L 835,688 L 837,686 L 838,686 L 839,685 L 840,685 L 842,683 L 843,683 L 845,681 L 846,681 L 848,679 L 849,679 L 851,677 L 852,677 L 855,674 L 856,674 L 861,669 L 862,669 L 881,650 L 881,649 L 886,644 L 886,643 L 889,640 L 889,639 L 891,637 L 891,636 L 894,633 L 894,632 L 896,630 L 896,629 L 897,628 L 897,627 L 899,625 L 899,624 L 900,623 L 900,622 L 902,620 L 902,619 L 903,618 L 903,617 L 904,616 L 904,615 L 905,614 L 905,613 L 906,612 L 906,611 L 907,610 L 907,609 L 908,608 L 908,607 L 909,606 L 909,604 L 910,603 L 910,602 L 911,601 L 911,600 L 912,599 L 912,597 L 913,596 L 913,594 L 914,593 L 914,591 L 915,590 L 915,588 L 916,587 L 916,585 L 917,584 L 917,582 L 918,581 L 918,578 L 919,577 L 919,574 L 920,573 L 920,569 L 921,568 L 921,564 L 922,563 L 922,557 L 923,556 L 923,549 L 924,548 L 924,515 L 923,514 L 923,507 L 922,506 L 922,501 L 921,500 L 921,495 L 920,494 L 920,491 L 919,490 L 919,487 L 918,486 L 918,483 L 917,482 L 917,480 L 916,479 L 916,477 L 915,476 L 915,474 L 914,473 L 914,471 L 913,470 L 913,468 L 912,467 L 912,466 L 911,465 L 911,464 L 910,463 L 910,461 L 909,460 L 909,459 L 908,458 L 908,457 L 907,456 L 907,455 L 906,454 L 906,453 L 905,452 L 905,451 L 904,450 L 904,449 L 903,448 L 903,447 L 901,445 L 901,444 L 900,443 L 900,442 L 898,440 L 898,439 L 897,438 L 897,437 L 895,435 L 895,434 L 893,432 L 893,431 L 890,428 L 890,427 L 886,423 L 886,422 L 882,418 L 882,417 L 860,395 L 859,395 L 855,391 L 854,391 L 851,388 L 850,388 L 847,385 L 846,385 L 843,382 L 842,382 L 840,380 L 839,380 L 838,379 L 837,379 L 835,377 L 834,377 L 833,376 L 832,376 L 830,374 L 829,374 L 828,373 L 827,373 L 826,372 L 825,372 L 823,370 L 822,370 L 821,369 L 820,369 L 819,368 L 818,368 L 817,367 L 816,367 L 815,366 L 813,366 L 812,365 L 811,365 L 810,364 L 809,364 L 808,363 L 806,363 L 805,362 L 804,362 L 803,361 L 801,361 L 800,360 L 799,360 L 798,359 L 796,359 L 795,358 L 793,358 L 792,357 L 790,357 L 789,356 L 786,356 L 785,355 L 783,355 L 782,354 L 779,354 L 778,353 L 774,353 L 773,352 L 769,352 L 768,351 L 764,351 L 763,350 L 756,350 L 755,349 L 741,349 L 740,348 Z" fill="black" /><path d="M 673,306 L 672,307 L 671,307 L 670,308 L 669,308 L 668,309 L 667,309 L 666,310 L 665,310 L 663,312 L 662,312 L 660,314 L 659,314 L 658,315 L 657,315 L 655,317 L 654,317 L 653,318 L 652,318 L 651,319 L 650,319 L 648,321 L 647,321 L 645,323 L 644,323 L 643,324 L 642,324 L 640,326 L 639,326 L 638,327 L 637,327 L 636,328 L 635,328 L 633,330 L 632,330 L 631,331 L 630,331 L 629,332 L 628,332 L 626,334 L 625,334 L 624,335 L 623,335 L 622,336 L 621,336 L 619,338 L 618,338 L 617,339 L 616,339 L 615,340 L 614,340 L 612,342 L 611,342 L 610,343 L 609,343 L 607,345 L 606,345 L 605,346 L 604,346 L 602,348 L 601,348 L 600,349 L 599,349 L 598,350 L 597,350 L 596,351 L 595,351 L 593,353 L 592,353 L 591,354 L 590,354 L 589,355 L 588,355 L 587,356 L 586,356 L 584,358 L 582,358 L 581,359 L 580,359 L 579,360 L 578,360 L 577,361 L 576,361 L 575,362 L 574,362 L 573,363 L 572,363 L 571,364 L 569,364 L 568,365 L 566,365 L 565,366 L 564,366 L 563,365 L 563,364 L 562,363 L 562,360 L 561,359 L 561,356 L 560,355 L 560,352 L 559,351 L 559,350 L 558,349 L 556,349 L 555,350 L 554,350 L 553,351 L 551,351 L 550,352 L 549,352 L 548,353 L 546,353 L 545,354 L 544,354 L 543,355 L 541,355 L 540,356 L 539,356 L 538,357 L 536,357 L 535,358 L 534,358 L 533,359 L 531,359 L 530,360 L 529,360 L 528,361 L 526,361 L 525,362 L 524,362 L 523,363 L 521,363 L 520,364 L 519,364 L 518,365 L 516,365 L 515,366 L 514,366 L 513,367 L 511,367 L 510,368 L 509,368 L 508,369 L 506,369 L 505,370 L 504,370 L 503,371 L 501,371 L 500,372 L 498,372 L 497,373 L 496,373 L 495,374 L 493,374 L 492,375 L 490,375 L 489,376 L 488,376 L 487,377 L 485,377 L 484,378 L 483,378 L 482,379 L 480,379 L 479,380 L 477,380 L 476,381 L 475,381 L 474,382 L 472,382 L 471,383 L 469,383 L 468,384 L 467,384 L 466,385 L 464,385 L 463,386 L 461,386 L 460,387 L 459,387 L 458,388 L 456,388 L 455,389 L 453,389 L 452,390 L 450,390 L 449,391 L 448,391 L 447,392 L 445,392 L 444,393 L 442,393 L 441,394 L 439,394 L 438,395 L 437,395 L 436,396 L 434,396 L 433,397 L 431,397 L 430,398 L 428,398 L 427,399 L 425,399 L 424,400 L 422,400 L 421,401 L 420,401 L 419,402 L 417,402 L 416,403 L 414,403 L 413,404 L 411,404 L 410,405 L 408,405 L 407,406 L 405,406 L 404,407 L 402,407 L 401,408 L 399,408 L 398,409 L 396,409 L 395,410 L 393,410 L 392,411 L 390,411 L 389,412 L 387,412 L 386,413 L 384,413 L 383,414 L 381,414 L 380,415 L 378,415 L 377,416 L 375,416 L 374,417 L 372,417 L 371,418 L 369,418 L 368,419 L 366,419 L 365,420 L 363,420 L 362,421 L 359,421 L 358,422 L 356,422 L 355,423 L 353,423 L 352,424 L 350,424 L 349,425 L 347,425 L 346,426 L 343,426 L 342,427 L 340,427 L 339,428 L 337,428 L 336,429 L 334,429 L 333,430 L 331,430 L 330,431 L 327,431 L 326,432 L 324,432 L 323,433 L 321,433 L 320,434 L 318,434 L 316,436 L 316,437 L 315,438 L 315,440 L 314,441 L 314,442 L 313,443 L 313,444 L 312,445 L 312,446 L 311,447 L 311,448 L 310,449 L 310,450 L 308,452 L 308,454 L 306,456 L 306,457 L 305,458 L 305,459 L 304,460 L 304,461 L 303,462 L 303,463 L 302,464 L 302,465 L 301,466 L 301,467 L 300,468 L 300,469 L 299,470 L 299,471 L 298,472 L 298,473 L 297,474 L 297,475 L 296,476 L 296,477 L 294,479 L 294,480 L 293,481 L 293,482 L 292,483 L 292,484 L 291,485 L 291,487 L 294,487 L 295,488 L 298,488 L 299,489 L 303,489 L 304,490 L 307,490 L 308,491 L 311,491 L 312,492 L 314,492 L 315,493 L 314,494 L 314,495 L 313,496 L 313,497 L 312,498 L 312,499 L 311,500 L 311,501 L 309,503 L 309,504 L 308,505 L 308,506 L 307,507 L 307,508 L 306,509 L 306,510 L 305,511 L 305,512 L 303,514 L 303,516 L 301,518 L 301,519 L 299,521 L 295,521 L 294,520 L 292,520 L 291,519 L 289,519 L 288,518 L 285,518 L 284,517 L 282,517 L 281,516 L 279,516 L 278,515 L 276,515 L 275,514 L 274,514 L 273,513 L 271,513 L 270,512 L 268,512 L 267,511 L 266,511 L 265,510 L 263,510 L 262,509 L 260,509 L 259,508 L 258,508 L 257,507 L 255,507 L 254,506 L 253,506 L 252,505 L 251,505 L 250,504 L 249,504 L 248,503 L 246,503 L 245,502 L 244,502 L 243,501 L 242,501 L 241,500 L 240,500 L 239,499 L 238,499 L 237,498 L 236,498 L 235,497 L 234,497 L 233,496 L 232,496 L 231,495 L 230,495 L 229,494 L 228,494 L 227,493 L 226,493 L 224,491 L 223,491 L 222,490 L 219,490 L 219,492 L 220,493 L 220,495 L 221,496 L 221,498 L 222,499 L 222,501 L 223,502 L 223,504 L 224,505 L 224,507 L 225,508 L 225,511 L 226,512 L 226,514 L 227,515 L 227,517 L 228,518 L 228,520 L 229,521 L 229,523 L 230,524 L 230,527 L 231,528 L 231,530 L 232,531 L 232,533 L 233,534 L 233,536 L 234,537 L 234,539 L 235,540 L 235,543 L 236,544 L 236,546 L 237,547 L 237,549 L 238,550 L 238,552 L 239,553 L 239,555 L 240,556 L 240,558 L 241,559 L 241,562 L 242,563 L 242,565 L 243,566 L 243,568 L 244,569 L 244,571 L 245,572 L 245,575 L 246,576 L 246,578 L 247,579 L 247,582 L 244,585 L 243,585 L 242,586 L 241,586 L 240,587 L 239,587 L 237,589 L 236,589 L 235,590 L 234,590 L 233,591 L 232,591 L 230,593 L 229,593 L 228,594 L 227,594 L 225,596 L 224,596 L 223,597 L 222,597 L 220,599 L 218,599 L 216,597 L 216,595 L 215,594 L 215,591 L 214,590 L 214,585 L 213,584 L 213,580 L 212,579 L 212,573 L 211,572 L 211,566 L 210,565 L 210,559 L 209,558 L 209,551 L 208,550 L 208,543 L 207,542 L 207,535 L 206,534 L 206,527 L 205,526 L 205,518 L 204,517 L 204,510 L 203,509 L 203,502 L 202,501 L 202,494 L 201,493 L 200,493 L 198,495 L 197,495 L 195,497 L 194,497 L 192,499 L 191,499 L 188,502 L 187,502 L 185,504 L 184,504 L 182,506 L 181,506 L 178,509 L 178,563 L 177,564 L 177,575 L 178,576 L 182,576 L 183,575 L 185,575 L 186,574 L 188,574 L 189,573 L 191,573 L 192,572 L 193,572 L 194,571 L 197,571 L 198,570 L 200,570 L 201,571 L 201,573 L 200,574 L 200,576 L 199,577 L 199,579 L 198,580 L 198,581 L 197,582 L 197,584 L 196,585 L 196,587 L 195,588 L 195,590 L 194,591 L 194,593 L 193,594 L 193,597 L 192,598 L 192,600 L 191,601 L 191,603 L 190,604 L 190,606 L 189,607 L 189,609 L 188,610 L 188,613 L 187,614 L 187,616 L 186,617 L 186,619 L 185,620 L 185,623 L 184,624 L 184,626 L 183,627 L 183,630 L 182,631 L 182,633 L 181,634 L 181,637 L 180,638 L 180,640 L 179,641 L 179,644 L 178,645 L 178,647 L 177,648 L 177,651 L 176,652 L 176,654 L 175,655 L 175,658 L 174,659 L 174,662 L 173,663 L 173,665 L 172,666 L 172,669 L 171,670 L 171,673 L 170,674 L 170,676 L 169,677 L 169,680 L 168,681 L 168,684 L 167,685 L 167,687 L 166,688 L 166,691 L 165,692 L 165,694 L 164,695 L 164,698 L 163,699 L 163,701 L 162,702 L 162,705 L 161,706 L 161,708 L 160,709 L 160,712 L 159,713 L 159,715 L 158,716 L 158,719 L 157,720 L 157,722 L 156,723 L 156,726 L 155,727 L 155,729 L 154,730 L 154,733 L 153,734 L 153,736 L 152,737 L 152,740 L 151,741 L 151,743 L 150,744 L 150,747 L 149,748 L 149,750 L 148,751 L 148,754 L 147,755 L 147,758 L 146,759 L 146,762 L 145,763 L 145,768 L 146,769 L 148,769 L 149,770 L 154,770 L 155,771 L 162,771 L 163,772 L 168,772 L 169,773 L 169,774 L 168,775 L 168,776 L 167,777 L 167,782 L 166,783 L 166,788 L 165,789 L 165,793 L 164,794 L 164,798 L 163,799 L 163,803 L 162,804 L 162,805 L 161,806 L 161,807 L 155,813 L 154,813 L 151,816 L 150,816 L 147,819 L 146,819 L 143,822 L 142,822 L 140,824 L 139,824 L 137,826 L 136,826 L 134,828 L 133,828 L 131,830 L 130,830 L 128,832 L 127,832 L 126,833 L 125,833 L 123,835 L 122,835 L 120,837 L 119,837 L 118,838 L 117,838 L 115,840 L 114,840 L 113,841 L 112,841 L 110,843 L 109,843 L 108,844 L 107,844 L 105,846 L 104,846 L 103,847 L 102,847 L 101,848 L 100,848 L 99,849 L 98,849 L 97,850 L 96,850 L 95,851 L 94,851 L 89,856 L 89,857 L 88,858 L 88,863 L 91,866 L 94,866 L 95,867 L 120,867 L 121,866 L 130,866 L 131,865 L 136,865 L 137,864 L 142,864 L 143,863 L 146,863 L 147,862 L 150,862 L 151,861 L 155,861 L 156,860 L 160,860 L 161,859 L 165,859 L 166,858 L 170,858 L 171,857 L 177,857 L 178,856 L 183,856 L 184,855 L 189,855 L 190,854 L 194,854 L 195,853 L 197,853 L 198,852 L 200,852 L 201,851 L 202,851 L 205,848 L 205,846 L 206,845 L 206,832 L 205,831 L 205,827 L 204,826 L 204,823 L 203,822 L 203,818 L 202,817 L 202,814 L 201,813 L 201,808 L 202,807 L 202,805 L 203,804 L 203,802 L 204,801 L 204,799 L 205,798 L 205,796 L 206,795 L 206,793 L 207,792 L 207,791 L 208,790 L 208,788 L 209,787 L 209,785 L 210,784 L 210,782 L 211,781 L 211,780 L 212,779 L 212,777 L 214,775 L 219,775 L 220,774 L 224,774 L 225,773 L 229,773 L 230,772 L 235,772 L 238,769 L 238,767 L 239,766 L 239,763 L 240,762 L 240,759 L 241,758 L 241,756 L 242,755 L 242,752 L 243,751 L 243,748 L 244,747 L 244,745 L 245,744 L 245,741 L 246,740 L 246,737 L 247,736 L 247,734 L 248,733 L 248,730 L 249,729 L 249,726 L 250,725 L 250,723 L 251,722 L 251,719 L 252,718 L 252,716 L 253,715 L 253,712 L 254,711 L 254,709 L 255,708 L 255,706 L 256,705 L 256,702 L 257,701 L 257,699 L 258,698 L 258,696 L 259,695 L 259,692 L 260,691 L 260,689 L 261,688 L 261,686 L 262,685 L 262,683 L 263,682 L 263,680 L 264,679 L 264,677 L 265,676 L 265,674 L 266,673 L 266,671 L 267,670 L 267,668 L 268,667 L 268,665 L 269,664 L 269,662 L 270,661 L 270,659 L 271,658 L 271,656 L 272,655 L 272,653 L 273,652 L 273,650 L 274,649 L 274,648 L 275,647 L 275,645 L 276,644 L 276,642 L 277,641 L 277,639 L 278,638 L 278,637 L 279,636 L 279,634 L 280,633 L 280,631 L 281,630 L 281,628 L 282,627 L 282,626 L 283,625 L 283,623 L 284,622 L 284,621 L 285,620 L 285,618 L 286,617 L 286,616 L 287,615 L 287,613 L 288,612 L 288,611 L 289,610 L 289,608 L 290,607 L 290,606 L 291,605 L 291,603 L 292,602 L 292,601 L 293,600 L 293,598 L 294,597 L 294,596 L 295,595 L 295,594 L 296,593 L 296,591 L 297,590 L 297,589 L 298,588 L 298,587 L 299,586 L 299,584 L 300,583 L 300,582 L 301,581 L 301,580 L 302,579 L 302,578 L 303,577 L 303,575 L 304,574 L 304,573 L 305,572 L 305,571 L 306,570 L 306,569 L 307,568 L 307,567 L 308,566 L 308,565 L 309,564 L 309,562 L 310,561 L 310,560 L 311,559 L 311,558 L 315,554 L 316,554 L 317,553 L 318,553 L 319,552 L 320,552 L 321,551 L 322,551 L 323,550 L 324,550 L 326,548 L 327,548 L 328,547 L 329,547 L 330,546 L 331,546 L 333,544 L 334,544 L 335,543 L 336,543 L 337,542 L 338,542 L 339,541 L 340,541 L 342,539 L 343,539 L 344,538 L 345,538 L 346,537 L 347,537 L 348,536 L 349,536 L 351,534 L 352,534 L 353,533 L 354,533 L 355,532 L 356,532 L 357,531 L 358,531 L 359,530 L 360,530 L 362,528 L 363,528 L 364,527 L 365,527 L 366,526 L 367,526 L 368,525 L 369,525 L 370,524 L 371,524 L 372,523 L 373,523 L 374,522 L 375,522 L 377,520 L 378,520 L 379,519 L 380,519 L 381,518 L 382,518 L 383,517 L 384,517 L 385,516 L 386,516 L 387,515 L 388,515 L 389,514 L 390,514 L 391,513 L 392,513 L 393,512 L 394,512 L 395,511 L 396,511 L 397,510 L 398,510 L 399,509 L 400,509 L 401,508 L 402,508 L 403,507 L 404,507 L 405,506 L 406,506 L 407,505 L 408,505 L 409,504 L 410,504 L 411,503 L 413,503 L 414,502 L 415,502 L 416,501 L 417,501 L 418,500 L 419,500 L 420,499 L 421,499 L 422,498 L 423,498 L 424,497 L 426,497 L 427,496 L 428,496 L 429,495 L 430,495 L 431,494 L 432,494 L 433,493 L 434,493 L 435,492 L 437,492 L 438,491 L 439,491 L 440,490 L 441,490 L 442,489 L 444,489 L 445,488 L 446,488 L 447,487 L 448,487 L 449,486 L 450,486 L 451,485 L 453,485 L 454,484 L 455,484 L 456,483 L 457,483 L 458,482 L 460,482 L 461,481 L 462,481 L 463,480 L 465,480 L 466,479 L 467,479 L 468,478 L 470,478 L 471,477 L 472,477 L 473,476 L 475,476 L 476,475 L 477,475 L 478,474 L 480,474 L 481,473 L 482,473 L 483,472 L 485,472 L 486,471 L 487,471 L 488,470 L 490,470 L 491,469 L 493,469 L 494,468 L 495,468 L 496,467 L 498,467 L 499,466 L 501,466 L 502,465 L 503,465 L 504,464 L 506,464 L 507,463 L 509,463 L 510,462 L 512,462 L 513,461 L 514,461 L 515,460 L 517,460 L 518,459 L 520,459 L 521,458 L 523,458 L 524,457 L 526,457 L 527,456 L 529,456 L 530,455 L 532,455 L 533,454 L 535,454 L 536,453 L 538,453 L 539,452 L 540,452 L 541,451 L 543,451 L 544,450 L 546,450 L 547,449 L 549,449 L 550,448 L 552,448 L 553,447 L 555,447 L 556,446 L 558,446 L 559,445 L 561,445 L 562,444 L 564,444 L 565,443 L 567,443 L 567,442 L 568,441 L 568,440 L 569,439 L 569,431 L 570,430 L 570,418 L 569,417 L 569,410 L 570,409 L 571,409 L 572,408 L 574,408 L 575,407 L 577,407 L 578,406 L 580,406 L 581,405 L 583,405 L 584,404 L 586,404 L 587,403 L 588,403 L 589,402 L 591,402 L 592,401 L 594,401 L 595,400 L 596,400 L 597,399 L 599,399 L 600,398 L 602,398 L 603,397 L 607,397 L 611,401 L 612,401 L 614,403 L 615,403 L 617,405 L 618,405 L 619,406 L 620,406 L 621,407 L 623,407 L 624,408 L 633,408 L 634,407 L 635,407 L 639,403 L 639,402 L 640,401 L 640,400 L 641,399 L 641,397 L 642,396 L 642,393 L 643,392 L 643,389 L 644,388 L 644,386 L 645,385 L 645,383 L 646,382 L 646,380 L 647,379 L 647,376 L 648,375 L 648,374 L 649,373 L 649,372 L 650,371 L 650,370 L 653,367 L 653,366 L 657,362 L 657,361 L 660,358 L 660,357 L 663,354 L 663,353 L 665,351 L 665,350 L 668,347 L 668,346 L 670,344 L 670,343 L 672,341 L 672,340 L 675,337 L 675,336 L 677,334 L 677,333 L 679,331 L 679,330 L 681,328 L 681,327 L 683,325 L 683,324 L 685,322 L 685,321 L 686,320 L 686,317 L 687,316 L 687,314 L 686,313 L 686,311 L 685,310 L 685,309 L 683,307 L 682,307 L 681,306 Z" fill="black" /><path d="M 876,286 L 875,287 L 874,287 L 873,288 L 872,288 L 868,292 L 867,292 L 864,295 L 863,295 L 860,298 L 859,298 L 856,301 L 855,301 L 852,304 L 851,304 L 848,307 L 847,307 L 843,311 L 842,311 L 839,314 L 838,314 L 835,317 L 834,317 L 831,320 L 830,320 L 827,323 L 826,323 L 823,326 L 822,326 L 819,329 L 818,329 L 814,333 L 813,333 L 810,336 L 809,336 L 807,338 L 807,341 L 809,343 L 812,343 L 813,342 L 816,342 L 817,341 L 820,341 L 821,340 L 824,340 L 825,339 L 827,339 L 828,338 L 831,338 L 832,337 L 835,337 L 836,336 L 839,336 L 840,335 L 843,335 L 844,334 L 847,334 L 848,333 L 850,333 L 851,332 L 854,332 L 855,331 L 858,331 L 859,330 L 862,330 L 863,329 L 866,329 L 867,328 L 870,328 L 871,327 L 874,327 L 875,326 L 878,326 L 879,325 L 882,325 L 883,324 L 886,324 L 887,323 L 889,323 L 891,321 L 891,316 L 890,315 L 890,313 L 889,312 L 889,310 L 888,309 L 888,307 L 887,306 L 887,304 L 886,303 L 886,301 L 885,300 L 885,298 L 884,297 L 884,295 L 883,294 L 883,292 L 882,291 L 882,289 L 880,287 L 879,287 L 878,286 Z" fill="black" /><path d="M 318,265 L 317,266 L 315,266 L 314,267 L 312,267 L 311,268 L 310,268 L 303,275 L 303,276 L 301,278 L 301,279 L 299,281 L 299,282 L 297,284 L 297,285 L 296,286 L 296,287 L 295,288 L 295,289 L 294,290 L 294,291 L 293,292 L 293,302 L 294,303 L 294,305 L 295,306 L 295,307 L 300,312 L 300,313 L 299,314 L 299,315 L 298,316 L 298,318 L 297,319 L 297,320 L 296,321 L 296,324 L 295,325 L 295,329 L 294,330 L 294,335 L 293,336 L 293,354 L 292,355 L 291,354 L 290,354 L 289,353 L 288,353 L 284,349 L 284,348 L 283,347 L 283,345 L 282,344 L 282,326 L 283,325 L 283,319 L 284,318 L 284,309 L 282,307 L 279,307 L 278,306 L 273,306 L 272,305 L 267,305 L 266,304 L 261,304 L 260,303 L 255,303 L 254,302 L 249,302 L 248,301 L 242,301 L 241,300 L 236,300 L 235,299 L 229,299 L 228,298 L 222,298 L 221,297 L 214,297 L 213,296 L 206,296 L 205,295 L 197,295 L 196,294 L 185,294 L 184,293 L 167,293 L 166,294 L 158,294 L 157,295 L 152,295 L 151,296 L 147,296 L 146,297 L 143,297 L 142,298 L 139,298 L 138,299 L 136,299 L 135,300 L 133,300 L 132,301 L 131,301 L 124,308 L 124,309 L 122,311 L 122,312 L 120,314 L 120,315 L 119,316 L 119,317 L 118,318 L 118,319 L 117,320 L 117,321 L 116,322 L 116,324 L 115,325 L 115,326 L 114,327 L 114,328 L 113,329 L 113,331 L 112,332 L 112,334 L 111,335 L 111,337 L 110,338 L 110,340 L 109,341 L 109,343 L 108,344 L 108,347 L 107,348 L 107,350 L 106,351 L 106,354 L 105,355 L 105,359 L 104,360 L 104,363 L 103,364 L 103,369 L 102,370 L 102,375 L 101,376 L 101,382 L 100,383 L 100,392 L 99,393 L 99,422 L 100,423 L 100,429 L 101,430 L 101,432 L 100,433 L 98,431 L 98,430 L 93,425 L 93,424 L 91,422 L 91,421 L 89,419 L 89,418 L 88,417 L 88,416 L 87,415 L 87,413 L 86,412 L 86,409 L 85,408 L 85,394 L 72,381 L 71,381 L 63,373 L 62,374 L 62,375 L 61,376 L 61,385 L 60,386 L 60,392 L 61,393 L 61,399 L 62,400 L 62,403 L 63,404 L 63,406 L 64,407 L 64,409 L 65,410 L 65,411 L 66,412 L 66,413 L 67,414 L 67,415 L 68,416 L 68,417 L 69,418 L 69,419 L 71,421 L 71,422 L 73,424 L 73,425 L 76,428 L 76,429 L 98,451 L 99,451 L 103,455 L 104,455 L 107,458 L 108,458 L 110,460 L 111,460 L 113,462 L 114,462 L 116,464 L 117,464 L 119,466 L 120,466 L 121,467 L 122,467 L 124,469 L 125,469 L 127,471 L 128,471 L 129,472 L 130,472 L 131,473 L 132,473 L 134,475 L 135,475 L 136,476 L 137,476 L 138,477 L 139,477 L 140,478 L 141,478 L 143,480 L 144,480 L 145,481 L 146,481 L 147,482 L 148,482 L 149,483 L 150,483 L 151,484 L 153,484 L 154,485 L 155,485 L 156,486 L 157,486 L 158,487 L 162,487 L 163,486 L 164,486 L 166,484 L 167,484 L 169,482 L 170,482 L 173,479 L 174,479 L 178,475 L 179,475 L 214,440 L 214,439 L 228,425 L 228,424 L 238,414 L 238,413 L 246,405 L 246,404 L 247,403 L 247,400 L 240,393 L 239,393 L 235,389 L 234,389 L 230,385 L 229,385 L 225,381 L 224,381 L 221,378 L 220,378 L 218,376 L 217,376 L 214,373 L 213,373 L 211,371 L 210,371 L 208,369 L 207,369 L 205,367 L 204,367 L 202,365 L 201,365 L 199,363 L 198,363 L 196,361 L 195,361 L 192,358 L 191,358 L 189,356 L 188,356 L 186,354 L 185,354 L 182,351 L 181,351 L 177,347 L 176,347 L 172,343 L 171,343 L 165,337 L 166,336 L 167,336 L 168,337 L 169,337 L 170,338 L 172,338 L 173,339 L 174,339 L 175,340 L 177,340 L 178,341 L 180,341 L 181,342 L 182,342 L 183,343 L 185,343 L 186,344 L 188,344 L 189,345 L 190,345 L 191,346 L 193,346 L 194,347 L 196,347 L 197,348 L 198,348 L 199,349 L 201,349 L 202,350 L 203,350 L 204,351 L 206,351 L 207,352 L 209,352 L 210,353 L 211,353 L 212,354 L 214,354 L 215,355 L 217,355 L 218,356 L 219,356 L 220,357 L 222,357 L 223,358 L 225,358 L 226,359 L 227,359 L 228,360 L 230,360 L 231,361 L 233,361 L 234,362 L 235,362 L 236,363 L 238,363 L 239,364 L 241,364 L 242,365 L 244,365 L 245,366 L 246,366 L 247,367 L 249,367 L 250,368 L 252,368 L 253,369 L 255,369 L 256,370 L 258,370 L 259,371 L 261,371 L 262,372 L 263,372 L 264,373 L 266,373 L 267,374 L 269,374 L 270,375 L 272,375 L 273,376 L 275,376 L 276,377 L 277,377 L 278,378 L 280,378 L 281,379 L 283,379 L 284,380 L 292,380 L 293,379 L 294,379 L 298,375 L 298,374 L 299,373 L 299,369 L 300,368 L 300,360 L 301,359 L 301,358 L 303,356 L 304,356 L 305,355 L 306,355 L 308,353 L 309,353 L 310,352 L 311,352 L 312,351 L 313,351 L 314,350 L 315,350 L 317,348 L 318,348 L 319,347 L 320,347 L 321,346 L 322,346 L 323,345 L 324,345 L 325,344 L 326,344 L 327,343 L 328,343 L 330,341 L 331,341 L 332,340 L 333,340 L 334,339 L 335,339 L 337,337 L 338,337 L 340,335 L 341,335 L 343,333 L 344,333 L 350,327 L 350,326 L 353,323 L 353,322 L 355,320 L 355,319 L 357,317 L 357,316 L 359,314 L 359,313 L 360,312 L 360,311 L 362,309 L 362,301 L 361,300 L 361,299 L 358,296 L 358,295 L 354,291 L 354,290 L 348,284 L 348,283 L 343,278 L 343,277 L 333,267 L 332,267 L 331,266 L 330,266 L 329,265 Z" fill="black" /><path d="M 65,226 L 64,227 L 62,227 L 60,229 L 59,229 L 55,233 L 54,233 L 53,234 L 53,235 L 40,248 L 40,249 L 35,254 L 35,255 L 34,256 L 34,257 L 32,259 L 32,261 L 31,262 L 31,274 L 32,275 L 32,278 L 33,279 L 33,282 L 34,283 L 34,286 L 35,287 L 35,290 L 36,291 L 36,293 L 37,294 L 37,296 L 38,297 L 38,298 L 39,299 L 39,301 L 40,302 L 40,303 L 41,304 L 41,305 L 42,306 L 42,307 L 43,308 L 43,310 L 44,311 L 44,312 L 45,313 L 45,314 L 46,315 L 46,316 L 47,317 L 47,318 L 48,319 L 48,320 L 49,321 L 49,322 L 51,324 L 51,325 L 52,326 L 52,327 L 53,328 L 53,329 L 54,330 L 54,331 L 56,333 L 56,334 L 57,335 L 57,336 L 59,338 L 59,339 L 61,341 L 61,342 L 62,343 L 62,344 L 64,346 L 64,347 L 66,349 L 66,350 L 68,352 L 68,353 L 71,356 L 71,357 L 73,359 L 73,360 L 76,363 L 76,364 L 79,367 L 79,368 L 83,372 L 83,373 L 85,375 L 86,374 L 86,364 L 87,363 L 87,358 L 88,357 L 88,354 L 89,353 L 89,350 L 90,349 L 90,346 L 91,345 L 91,343 L 92,342 L 92,340 L 93,339 L 93,337 L 94,336 L 94,334 L 95,333 L 95,331 L 96,330 L 96,329 L 97,328 L 97,326 L 98,325 L 98,324 L 99,323 L 99,322 L 100,321 L 100,319 L 101,318 L 101,317 L 102,316 L 102,315 L 103,314 L 103,310 L 101,308 L 101,307 L 99,305 L 99,304 L 96,301 L 96,300 L 94,298 L 94,297 L 92,295 L 92,294 L 89,291 L 91,289 L 92,289 L 93,288 L 94,288 L 96,286 L 97,286 L 103,280 L 103,279 L 105,277 L 105,276 L 107,274 L 107,273 L 109,271 L 109,270 L 111,268 L 111,267 L 113,265 L 113,264 L 114,263 L 114,262 L 115,261 L 115,254 L 114,253 L 114,252 L 110,248 L 109,248 L 106,245 L 105,245 L 102,242 L 101,242 L 98,239 L 97,239 L 95,237 L 94,237 L 91,234 L 90,234 L 88,232 L 87,232 L 86,231 L 85,231 L 84,230 L 83,230 L 82,229 L 81,229 L 80,228 L 79,228 L 78,227 L 75,227 L 74,226 Z" fill="black" /><path d="M 711,212 L 710,213 L 709,213 L 708,214 L 706,214 L 705,215 L 704,215 L 703,216 L 702,216 L 701,217 L 699,217 L 698,218 L 697,218 L 696,219 L 694,219 L 693,220 L 692,220 L 691,221 L 690,221 L 689,222 L 687,222 L 686,223 L 685,223 L 684,224 L 683,224 L 682,225 L 680,225 L 678,227 L 678,230 L 679,231 L 679,232 L 682,235 L 682,236 L 684,238 L 684,239 L 687,242 L 687,243 L 689,245 L 689,246 L 692,249 L 692,250 L 695,253 L 695,254 L 697,256 L 697,257 L 700,260 L 700,261 L 702,263 L 702,264 L 705,267 L 705,268 L 707,270 L 707,271 L 710,274 L 710,275 L 712,277 L 712,278 L 715,281 L 715,282 L 717,284 L 717,285 L 720,288 L 720,289 L 722,291 L 722,292 L 725,295 L 725,296 L 728,299 L 728,300 L 730,302 L 730,303 L 734,307 L 735,307 L 736,308 L 737,307 L 738,307 L 739,306 L 739,301 L 738,300 L 738,297 L 737,296 L 737,293 L 736,292 L 736,289 L 735,288 L 735,286 L 734,285 L 734,282 L 733,281 L 733,278 L 732,277 L 732,274 L 731,273 L 731,270 L 730,269 L 730,266 L 729,265 L 729,262 L 728,261 L 728,259 L 727,258 L 727,255 L 726,254 L 726,251 L 725,250 L 725,247 L 724,246 L 724,243 L 723,242 L 723,239 L 722,238 L 722,235 L 721,234 L 721,232 L 720,231 L 720,228 L 719,227 L 719,224 L 718,223 L 718,220 L 717,219 L 717,216 L 716,215 L 716,214 L 714,212 Z" fill="black" /><path d="M 793,184 L 790,187 L 790,192 L 789,193 L 789,198 L 788,199 L 788,205 L 787,206 L 787,211 L 786,212 L 786,218 L 785,219 L 785,224 L 784,225 L 784,230 L 783,231 L 783,237 L 782,238 L 782,243 L 781,244 L 781,250 L 780,251 L 780,256 L 779,257 L 779,262 L 778,263 L 778,269 L 777,270 L 777,275 L 776,276 L 776,281 L 775,282 L 775,288 L 774,289 L 774,294 L 773,295 L 773,300 L 772,301 L 772,306 L 771,307 L 771,313 L 770,314 L 770,315 L 771,316 L 771,317 L 772,318 L 775,318 L 778,315 L 778,314 L 779,313 L 779,312 L 781,310 L 781,309 L 782,308 L 782,307 L 784,305 L 784,304 L 785,303 L 785,302 L 787,300 L 787,299 L 789,297 L 789,296 L 790,295 L 790,294 L 792,292 L 792,291 L 793,290 L 793,289 L 795,287 L 795,286 L 796,285 L 796,284 L 798,282 L 798,281 L 799,280 L 799,279 L 801,277 L 801,276 L 802,275 L 802,274 L 804,272 L 804,271 L 805,270 L 805,269 L 807,267 L 807,266 L 809,264 L 809,263 L 810,262 L 810,261 L 812,259 L 812,258 L 813,257 L 813,256 L 815,254 L 815,253 L 816,252 L 816,251 L 818,249 L 818,248 L 819,247 L 819,246 L 821,244 L 821,243 L 823,241 L 823,240 L 824,239 L 824,238 L 826,236 L 826,235 L 827,234 L 827,233 L 829,231 L 829,230 L 830,229 L 830,228 L 832,226 L 832,225 L 834,223 L 834,222 L 835,221 L 835,220 L 837,218 L 837,217 L 838,216 L 838,215 L 840,213 L 840,212 L 841,211 L 841,210 L 843,208 L 843,207 L 845,205 L 845,201 L 843,199 L 842,199 L 841,198 L 839,198 L 838,197 L 835,197 L 834,196 L 832,196 L 831,195 L 829,195 L 828,194 L 826,194 L 825,193 L 823,193 L 822,192 L 820,192 L 819,191 L 817,191 L 816,190 L 813,190 L 812,189 L 810,189 L 809,188 L 807,188 L 806,187 L 804,187 L 803,186 L 801,186 L 800,185 L 797,185 L 796,184 Z" fill="black" /></svg>